<?xml version="1.0" standalone="no"?>
<!DOCTYPE svg PUBLIC "-//W3C//DTD SVG 20010904//EN"
 "http://www.w3.org/TR/2001/REC-SVG-20010904/DTD/svg10.dtd">
<svg version="1.0" xmlns="http://www.w3.org/2000/svg"
 width="1102.000000pt" height="1080.000000pt" viewBox="0 0 1102.000000 1080.000000"
 preserveAspectRatio="xMidYMid meet">

<g transform="translate(0.000000,1080.000000) scale(0.100000,-0.100000)"
fill="#42AAFF" stroke="none">
<path d="M5610 10794 c-299 -20 -554 -51 -745 -89 -559 -112 -1032 -284 -1504
-548 -126 -70 -138 -77 -271 -162 -517 -330 -998 -793 -1343 -1293 -433 -626
-700 -1335 -784 -2077 -26 -228 -26 -776 0 -995 69 -592 263 -1163 567 -1674
454 -763 1184 -1376 1993 -1672 76 -28 105 -28 61 1 -61 40 -424 313 -548 414
-373 299 -697 631 -918 937 -407 567 -638 1241 -698 2044 -15 204 -12 617 5
788 111 1070 636 2032 1498 2745 1169 967 2774 1313 4277 921 1383 -361 2549
-1331 3241 -2697 267 -527 464 -1141 545 -1697 26 -182 37 -161 30 56 -13 398
-59 725 -156 1114 -201 804 -634 1598 -1205 2210 -44 47 -87 93 -95 103 -52
60 -341 320 -480 431 -311 249 -574 418 -910 587 -613 307 -1215 477 -1905
539 -126 11 -561 20 -655 14z"/>
<path d="M2464 10289 c-426 -257 -800 -568 -1159 -963 -24 -27 -116 -136 -156
-186 -608 -754 -994 -1677 -1109 -2649 -75 -640 -36 -1259 121 -1883 193 -772
575 -1503 1108 -2123 113 -131 369 -388 501 -501 809 -698 1776 -1107 2827
-1195 212 -17 694 -6 893 21 629 85 1150 258 1680 558 730 413 1318 1028 1688
1768 316 630 465 1368 412 2040 -13 162 -48 423 -60 443 -5 9 -10 12 -10 6 0
-17 -50 -434 -65 -555 -169 -1297 -625 -2145 -1540 -2861 -284 -222 -677 -460
-980 -594 -665 -293 -1422 -397 -2154 -294 -338 47 -615 118 -972 248 -145 52
-483 212 -634 299 -610 352 -1125 821 -1541 1402 -168 235 -251 375 -394 665
-421 855 -576 1763 -465 2730 82 712 340 1452 733 2105 358 595 827 1125 1384
1564 60 47 13 27 -108 -45z"/>
<path d="M5780 9744 c-859 -64 -1600 -349 -2239 -862 -52 -42 -89 -78 -84 -79
6 -2 53 15 104 38 782 345 1254 492 1779 555 176 21 591 24 755 6 558 -64
1066 -230 1637 -537 428 -230 799 -520 1103 -865 514 -585 844 -1289 984
-2103 41 -236 55 -417 55 -737 1 -390 -22 -625 -94 -975 -127 -613 -395 -1249
-737 -1744 -535 -775 -1237 -1357 -2078 -1723 -527 -229 -1055 -362 -1675
-420 -178 -16 -726 -16 -905 0 -564 53 -1048 161 -1553 349 -96 35 -176 62
-178 60 -3 -2 48 -34 113 -70 1395 -773 3084 -842 4570 -186 879 387 1640
1019 2176 1806 177 260 234 357 382 658 285 581 450 1180 505 1835 20 243 13
699 -15 925 -57 464 -144 821 -295 1210 -183 469 -404 850 -736 1265 -174 218
-463 496 -734 706 -288 224 -724 470 -1075 607 -328 129 -714 224 -1065 263
-130 14 -587 26 -700 18z"/>
</g>
</svg>
